<svg id="svg" version="1.1" xmlns="http://www.w3.org/2000/svg" xmlns:xlink="http://www.w3.org/1999/xlink" width="400" height="405.54455445544556" viewBox="0, 0, 400,405.54455445544556"><g id="svgg"><path id="path0" d="M133.861 2.823 C 115.077 15.275,100.825 19.150,73.663 19.188 C 57.111 19.212,53.196 18.628,40.434 14.230 C 34.693 12.252,35.313 12.104,32.424 16.139 C 31.059 18.045,28.198 21.832,26.066 24.554 C 22.305 29.357,17.822 36.066,17.822 36.892 C 17.822 37.116,19.411 39.466,21.353 42.115 C 39.884 67.391,46.563 94.438,41.553 123.920 C 37.120 150.002,23.860 175.693,4.177 196.333 C 1.842 198.782,-0.008 200.939,0.065 201.128 C 0.138 201.316,4.544 205.924,9.855 211.368 L 19.512 221.267 19.440 233.505 C 18.936 318.866,73.597 374.144,165.199 380.910 L 169.805 381.250 175.394 386.066 C 184.035 393.513,199.366 405.545,200.213 405.545 C 201.143 405.545,217.268 392.679,228.959 382.608 C 230.482 381.296,230.671 381.245,235.166 380.912 C 325.825 374.214,380.241 320.094,380.832 236.040 L 380.936 221.188 390.468 211.423 C 395.711 206.052,400.000 201.356,400.000 200.987 C 400.000 200.618,398.015 198.240,395.589 195.702 C 364.901 163.610,350.960 119.011,359.980 81.782 C 363.475 67.353,369.466 54.971,379.451 41.541 C 381.169 39.230,382.574 37.165,382.574 36.952 C 382.574 36.180,377.453 28.513,374.274 24.527 C 372.482 22.280,369.768 18.693,368.243 16.557 C 365.118 12.181,365.418 12.307,361.509 13.719 C 348.628 18.370,343.272 19.212,326.733 19.188 C 299.412 19.149,286.099 15.543,266.614 2.903 C 261.220 -0.596,261.966 -0.571,257.404 2.600 C 220.712 28.101,182.131 28.723,145.682 4.401 C 137.937 -0.767,139.053 -0.618,133.861 2.823 M142.853 13.200 C 156.922 22.290,170.273 27.496,185.857 29.969 C 191.384 30.846,208.297 30.968,213.267 30.167 C 230.610 27.371,245.790 21.374,259.675 11.831 C 261.797 10.373,261.532 10.327,265.691 12.861 C 291.338 28.486,329.686 33.169,358.084 24.143 L 361.782 22.968 362.574 24.029 C 363.010 24.613,364.806 26.886,366.566 29.080 C 368.325 31.274,370.261 33.822,370.868 34.742 L 371.972 36.414 368.438 41.672 C 349.058 70.504,343.692 101.988,352.356 136.040 C 357.985 158.163,371.017 182.414,385.732 198.144 L 388.213 200.796 381.136 208.135 C 377.244 212.171,373.496 216.136,372.808 216.945 L 371.556 218.416 371.955 223.564 C 378.488 307.890,324.229 365.733,232.478 372.254 C 228.014 372.572,226.548 372.818,225.882 373.361 C 225.411 373.745,222.736 376.091,219.938 378.574 C 213.924 383.911,200.817 394.455,200.198 394.455 C 199.587 394.455,186.536 383.965,180.441 378.574 C 177.634 376.091,174.928 373.742,174.429 373.353 C 173.723 372.805,172.257 372.560,167.849 372.254 C 90.068 366.851,39.429 325.441,29.709 259.288 C 28.185 248.911,27.509 221.968,28.698 218.972 C 28.931 218.384,26.440 215.631,14.336 203.101 L 12.166 200.855 14.979 197.754 C 57.055 151.373,63.669 85.775,30.877 40.074 C 28.052 36.136,28.074 36.437,30.406 33.427 C 37.955 23.684,38.584 22.950,39.184 23.181 C 66.547 33.684,111.382 28.515,136.034 12.015 C 138.574 10.315,138.321 10.272,142.853 13.200 M135.050 28.596 C 113.433 40.636,72.235 46.116,48.369 40.126 L 47.390 39.880 48.494 41.821 C 69.681 79.095,71.605 120.196,54.077 161.147 C 53.305 162.951,52.673 164.500,52.673 164.590 C 52.673 164.679,119.078 164.752,200.240 164.752 C 318.142 164.752,347.765 164.653,347.598 164.257 C 328.790 119.837,330.085 79.655,351.526 42.414 L 352.986 39.878 351.723 40.131 C 324.964 45.482,291.214 41.400,268.233 30.031 L 261.812 26.855 259.520 28.221 C 223.159 49.896,178.865 50.254,142.479 29.167 C 137.893 26.509,138.687 26.570,135.050 28.596 M139.228 30.063 C 140.159 30.956,148.902 35.417,153.900 37.551 C 166.885 43.095,180.020 46.222,193.455 46.969 L 198.416 47.244 198.416 104.810 L 198.416 162.376 127.284 162.376 C 59.694 162.376,56.167 162.342,56.441 161.683 C 72.646 122.659,72.288 84.263,55.399 49.855 C 53.671 46.334,52.306 43.407,52.366 43.351 C 52.426 43.294,53.400 43.396,54.531 43.577 C 79.731 47.604,114.890 42.226,135.248 31.230 C 138.213 29.627,138.642 29.502,139.228 30.063 M267.984 32.579 C 288.567 42.649,319.532 47.214,343.954 43.777 C 346.128 43.471,347.957 43.270,348.017 43.331 C 348.078 43.392,346.992 45.665,345.605 48.382 C 328.805 81.285,327.647 120.387,342.362 157.819 C 343.132 159.778,343.762 161.605,343.762 161.878 C 343.762 162.276,329.410 162.376,272.277 162.376 L 200.792 162.376 200.792 104.752 L 200.792 47.129 203.774 47.129 C 220.696 47.129,246.932 39.445,260.396 30.546 C 261.975 29.503,261.359 29.337,267.984 32.579 M191.660 172.188 C 175.178 178.426,175.035 206.440,191.457 212.011 C 198.131 214.275,206.440 211.826,210.281 206.462 C 212.513 203.345,212.846 203.883,206.305 200.041 L 204.886 199.209 203.632 200.955 C 197.130 210.009,186.055 200.857,188.497 188.447 C 190.233 179.620,199.941 176.487,203.825 183.499 C 204.205 184.185,204.379 184.155,206.965 182.962 C 208.471 182.268,210.293 181.444,211.013 181.132 L 212.323 180.564 211.448 179.094 C 207.698 172.798,198.515 169.594,191.660 172.188 M133.861 192.079 L 133.861 212.277 138.020 212.277 L 142.178 212.277 142.178 203.971 L 142.178 195.664 148.218 195.555 L 154.257 195.446 154.370 191.397 L 154.483 187.348 148.430 187.238 L 142.376 187.129 142.376 183.762 L 142.376 180.396 152.574 180.290 L 162.772 180.185 162.772 176.033 L 162.772 171.881 148.317 171.881 L 133.861 171.881 133.861 192.079 M233.663 192.052 L 233.663 212.277 243.743 212.277 C 257.113 212.277,259.837 211.638,263.318 207.684 C 267.359 203.093,267.048 194.720,262.715 191.414 L 261.353 190.375 262.314 189.346 C 266.273 185.109,265.529 177.524,260.846 174.367 C 257.733 172.269,256.937 172.150,244.851 171.982 L 233.663 171.826 233.663 192.052 M255.282 181.111 C 256.503 182.531,256.503 184.201,255.282 185.621 L 254.327 186.733 248.252 186.733 L 242.178 186.733 242.063 183.231 L 241.948 179.730 248.138 179.865 L 254.327 180.000 255.282 181.111 M256.271 195.947 C 257.218 197.008,257.426 197.594,257.426 199.208 C 257.426 200.822,257.218 201.408,256.271 202.469 L 255.116 203.762 248.548 203.888 L 241.980 204.014 241.980 199.208 L 241.980 194.402 248.548 194.528 L 255.116 194.653 256.271 195.947 M42.445 223.465 C 41.874 228.405,41.842 242.025,42.388 248.515 C 47.886 313.989,92.113 351.773,171.089 358.467 C 179.238 359.158,221.689 359.178,229.307 358.495 C 292.983 352.786,332.969 328.192,350.226 284.122 C 356.661 267.688,359.960 241.843,357.940 223.682 L 357.465 219.406 200.190 219.406 L 42.915 219.406 42.445 223.465 M133.069 285.750 L 133.069 349.718 131.980 349.469 C 120.897 346.929,102.561 338.841,91.584 331.649 L 87.129 328.730 87.129 275.256 L 87.129 221.782 110.099 221.782 L 133.069 221.782 133.069 285.750 M223.762 236.040 C 223.762 243.881,223.670 250.297,223.556 250.297 C 223.443 250.297,222.686 249.882,221.873 249.376 C 210.652 242.376,194.087 241.755,181.331 247.854 L 178.218 249.342 178.218 235.562 L 178.218 221.782 200.990 221.782 L 223.762 221.782 223.762 236.040 M314.851 274.590 L 314.851 327.397 311.782 329.600 C 305.345 334.219,297.602 338.514,288.975 342.250 C 283.183 344.759,269.754 349.385,269.220 349.055 C 269.050 348.950,268.911 320.271,268.911 285.323 L 268.911 221.782 291.881 221.782 L 314.851 221.782 314.851 274.590 M210.275 247.361 C 226.643 251.513,238.960 265.718,240.981 282.772 L 241.239 284.950 239.582 282.376 C 230.244 267.870,210.753 257.531,200.363 261.572 C 199.943 261.736,199.202 261.236,198.116 260.058 C 194.733 256.388,194.829 251.774,198.369 247.836 L 200.153 245.852 203.331 246.129 C 205.079 246.281,208.204 246.836,210.275 247.361 M195.951 247.030 C 192.391 251.089,193.063 259.826,197.126 262.307 C 197.539 262.560,197.345 262.985,196.274 264.171 C 190.406 270.665,190.864 280.738,197.291 286.545 C 199.115 288.193,199.114 288.653,197.280 291.540 C 193.077 298.156,184.252 298.569,178.626 292.413 C 172.615 285.836,171.626 276.263,175.299 260.198 C 177.038 252.595,176.959 252.712,181.902 250.298 C 187.981 247.329,197.663 245.077,195.951 247.030 M172.750 260.891 C 169.498 273.554,171.022 287.083,176.447 293.704 L 177.801 295.355 176.650 296.944 C 174.179 300.355,169.933 302.538,165.130 302.868 L 161.987 303.083 161.356 301.573 C 155.660 287.941,159.422 270.190,170.438 258.713 C 174.451 254.533,174.396 254.481,172.750 260.891 M212.844 264.355 C 223.659 267.904,233.409 275.798,238.566 285.180 C 241.468 290.459,241.567 292.828,239.191 300.100 C 238.032 303.647,237.870 303.747,236.791 301.587 C 234.541 297.083,231.092 295.248,224.877 295.248 L 220.249 295.248 219.998 293.861 C 218.460 285.353,209.440 280.688,202.201 284.657 L 199.848 285.947 197.963 283.939 C 195.294 281.096,194.328 278.355,194.551 274.257 C 195.074 264.669,202.143 260.843,212.844 264.355 M243.448 283.263 C 243.354 283.755,243.273 283.446,243.268 282.574 C 243.264 281.703,243.341 281.300,243.440 281.679 C 243.540 282.057,243.543 282.770,243.448 283.263 M243.851 288.812 C 243.763 289.520,243.691 288.941,243.691 287.525 C 243.691 286.109,243.763 285.530,243.851 286.238 C 243.939 286.946,243.939 288.104,243.851 288.812 M212.552 286.732 C 215.915 288.661,217.829 292.104,217.813 296.198 C 217.770 307.308,195.618 319.208,174.978 319.208 C 172.948 319.208,167.462 313.321,164.167 307.606 C 162.845 305.313,162.668 305.510,166.535 304.984 C 171.770 304.273,177.196 300.992,179.272 297.283 C 179.664 296.583,179.742 296.587,181.325 297.395 C 189.324 301.475,199.215 297.163,200.975 288.829 C 201.633 285.713,208.580 284.454,212.552 286.732 M243.425 293.018 C 242.438 303.644,235.628 315.284,226.244 322.388 L 223.728 324.293 223.753 340.364 L 223.779 356.436 200.998 356.436 L 178.218 356.436 178.218 340.957 C 178.218 332.444,178.351 325.546,178.515 325.628 C 181.534 327.142,184.546 328.407,185.247 328.455 C 185.737 328.488,186.138 328.668,186.138 328.854 C 186.138 329.041,186.406 329.091,186.733 328.966 C 187.059 328.840,187.327 328.922,187.327 329.148 C 187.327 329.386,187.680 329.446,188.168 329.291 C 188.785 329.096,188.928 329.157,188.703 329.520 C 188.473 329.893,188.666 329.949,189.479 329.745 C 190.245 329.553,190.479 329.606,190.281 329.927 C 190.080 330.253,190.379 330.307,191.337 330.117 C 192.362 329.915,192.535 329.955,192.079 330.289 C 191.630 330.620,191.967 330.673,193.465 330.508 C 194.554 330.389,195.140 330.426,194.767 330.591 C 194.394 330.756,196.854 330.891,200.234 330.891 C 203.614 330.891,205.969 330.761,205.467 330.601 C 204.941 330.434,205.478 330.378,206.733 330.469 C 207.931 330.556,208.562 330.533,208.137 330.418 C 207.658 330.288,208.756 329.855,211.014 329.285 C 213.022 328.777,216.376 327.551,218.466 326.561 C 220.557 325.571,222.453 324.875,222.680 325.016 C 222.907 325.156,222.980 325.088,222.841 324.864 C 222.703 324.641,223.562 323.813,224.750 323.024 C 234.251 316.716,242.011 303.978,243.029 293.018 C 243.168 291.522,243.371 290.297,243.480 290.297 C 243.589 290.297,243.564 291.522,243.425 293.018 M230.456 298.396 C 235.577 300.991,237.162 305.861,234.282 310.153 C 222.362 327.922,198.542 333.697,180.065 323.297 C 176.724 321.416,176.563 321.188,178.583 321.188 C 193.884 321.188,214.310 311.210,218.785 301.549 C 219.382 300.262,220.008 298.941,220.176 298.615 C 221.093 296.833,227.119 296.705,230.456 298.396 M220.891 325.771 C 219.411 326.574,219.501 326.909,220.990 326.139 C 221.644 325.801,222.178 325.440,222.178 325.336 C 222.178 325.082,222.136 325.096,220.891 325.771 M199.703 331.362 C 200.084 331.462,200.708 331.462,201.089 331.362 C 201.470 331.262,201.158 331.181,200.396 331.181 C 199.634 331.181,199.322 331.262,199.703 331.362 " stroke="none" fill="#163557" fill-rule="evenodd"></path><path id="path1" d="M132.748 32.493 C 127.084 35.386,119.984 38.154,113.890 39.845 L 110.099 40.896 110.099 60.646 L 110.099 80.396 88.075 80.396 L 66.050 80.396 66.290 81.683 C 68.580 94.006,69.018 109.032,67.456 121.683 L 67.224 123.564 88.661 123.564 L 110.099 123.564 110.099 142.772 L 110.099 161.980 131.683 161.980 L 153.267 161.980 153.267 142.772 L 153.267 123.564 175.842 123.564 L 198.416 123.564 198.416 101.980 L 198.416 80.396 175.842 80.396 L 153.267 80.396 153.267 58.858 L 153.267 37.320 151.125 36.450 C 149.947 35.972,146.560 34.258,143.598 32.642 C 140.637 31.026,138.170 29.725,138.117 29.752 C 138.063 29.778,135.648 31.012,132.748 32.493 M257.030 32.472 C 254.743 33.747,251.401 35.451,249.604 36.258 L 246.337 37.726 246.337 99.853 L 246.337 161.980 254.059 161.980 L 261.782 161.980 261.782 96.040 C 261.782 59.772,261.649 30.111,261.485 30.126 C 261.322 30.141,259.317 31.197,257.030 32.472 M277.624 99.604 L 277.624 161.980 285.149 161.980 L 292.673 161.980 292.673 101.663 L 292.673 41.347 290.302 40.857 C 288.998 40.588,285.722 39.661,283.021 38.797 C 280.321 37.934,278.002 37.228,277.867 37.228 C 277.733 37.228,277.624 65.297,277.624 99.604 M228.317 43.788 C 225.918 44.453,219.518 45.767,216.931 46.125 L 215.050 46.385 215.050 104.183 L 215.050 161.980 222.772 161.980 L 230.495 161.980 230.495 102.574 C 230.495 69.901,230.450 43.184,230.396 43.204 C 230.342 43.223,229.406 43.486,228.317 43.788 M308.515 102.928 L 308.515 161.980 316.238 161.980 L 323.960 161.980 323.960 103.413 L 323.960 44.847 320.297 44.612 C 318.282 44.482,314.807 44.264,312.574 44.126 L 308.515 43.875 308.515 102.928 M87.525 275.375 L 87.525 328.968 91.782 331.757 C 102.103 338.517,114.767 344.275,128.020 348.234 L 132.673 349.624 132.673 285.703 L 132.673 221.782 110.099 221.782 L 87.525 221.782 87.525 275.375 M178.218 235.488 C 178.218 246.303,178.322 249.148,178.713 248.979 C 178.985 248.860,180.667 248.121,182.450 247.336 C 194.572 241.997,208.424 242.414,220.297 248.475 L 223.762 250.244 223.762 236.013 L 223.762 221.782 200.990 221.782 L 178.218 221.782 178.218 235.488 M269.307 285.347 C 269.307 338.895,269.392 348.911,269.849 348.911 C 270.667 348.911,280.403 345.662,285.347 343.740 C 292.083 341.121,302.621 335.633,308.829 331.512 L 314.455 327.776 314.455 274.779 L 314.455 221.782 291.881 221.782 L 269.307 221.782 269.307 285.347 M219.406 326.780 C 207.582 332.735,193.724 332.862,181.487 327.128 L 178.218 325.596 178.218 341.016 L 178.218 356.436 200.990 356.436 L 223.762 356.436 223.762 340.594 C 223.762 331.881,223.629 324.782,223.465 324.819 C 223.302 324.856,221.475 325.738,219.406 326.780 " stroke="none" fill="#c5123b" fill-rule="evenodd"></path><path id="path2" d="M153.267 58.770 L 153.267 80.000 175.842 80.000 L 198.416 80.000 198.416 63.794 L 198.416 47.588 195.941 47.370 C 194.579 47.251,191.950 47.049,190.099 46.921 C 178.772 46.140,166.874 43.135,153.762 37.743 C 153.370 37.581,153.267 41.941,153.267 58.770 M104.950 42.007 C 93.631 44.471,70.959 45.525,58.226 44.179 C 55.290 43.868,52.831 43.671,52.762 43.740 C 52.693 43.809,53.783 46.159,55.185 48.962 C 59.527 57.647,62.498 65.695,64.963 75.446 L 66.064 79.802 88.082 79.904 L 110.099 80.007 110.099 60.597 L 110.099 41.188 109.208 41.231 C 108.718 41.255,106.802 41.604,104.950 42.007 M67.142 124.455 C 67.033 124.946,66.664 127.040,66.323 129.109 C 64.844 138.091,61.234 150.322,56.827 161.287 C 56.564 161.943,57.982 161.980,83.324 161.980 L 110.099 161.980 110.099 142.772 L 110.099 123.564 88.720 123.564 L 67.342 123.564 67.142 124.455 M153.531 123.828 C 153.386 123.974,153.267 132.617,153.267 143.036 L 153.267 161.980 175.842 161.980 L 198.416 161.980 198.416 142.772 L 198.416 123.564 176.106 123.564 C 163.835 123.564,153.677 123.683,153.531 123.828 " stroke="none" fill="#f9f9f9" fill-rule="evenodd"></path><path id="path3" d="M136.430 12.015 C 119.737 23.186,102.466 27.884,76.238 28.389 C 60.731 28.688,53.643 27.844,42.028 24.317 C 40.203 23.763,38.574 23.456,38.408 23.635 C 37.886 24.199,31.922 31.781,30.166 34.116 L 28.484 36.350 31.115 40.056 C 63.513 85.706,57.776 148.349,16.837 195.965 L 12.645 200.840 13.818 202.301 C 14.463 203.105,16.354 205.099,18.020 206.733 C 19.686 208.366,22.833 211.613,25.012 213.948 L 28.975 218.192 28.525 227.017 C 24.342 309.080,75.654 363.970,163.762 371.684 C 167.465 372.008,171.208 372.282,172.079 372.292 C 173.335 372.307,174.001 372.615,175.292 373.779 C 181.799 379.644,193.371 389.278,198.829 393.372 L 200.232 394.425 204.572 391.033 C 209.831 386.923,218.349 379.804,223.097 375.550 L 226.591 372.421 233.394 371.932 C 322.280 365.537,373.142 313.597,371.787 230.604 L 371.578 217.822 378.331 210.792 C 382.045 206.926,385.697 203.111,386.446 202.315 L 387.810 200.868 384.531 197.167 C 342.309 149.497,336.415 81.538,370.726 37.986 L 371.845 36.566 370.798 35.016 C 370.222 34.163,368.315 31.664,366.559 29.462 C 364.803 27.261,363.010 24.977,362.574 24.387 L 361.782 23.315 356.985 24.702 C 345.734 27.955,339.150 28.690,323.962 28.390 C 298.825 27.892,283.567 23.958,266.428 13.555 L 261.767 10.726 257.913 13.219 C 221.168 36.988,180.075 37.244,143.600 13.931 C 140.814 12.150,138.506 10.693,138.470 10.693 C 138.434 10.693,137.517 11.288,136.430 12.015 M147.877 31.728 C 183.956 50.015,224.162 48.731,259.178 28.172 L 261.921 26.562 265.515 28.452 C 282.990 37.643,298.759 41.268,323.762 41.844 C 335.024 42.103,340.509 41.784,348.706 40.393 C 351.098 39.988,353.104 39.704,353.163 39.764 C 353.222 39.823,352.029 42.068,350.511 44.752 C 331.082 79.114,329.560 120.731,346.280 160.495 L 348.070 164.752 200.209 164.752 L 52.347 164.752 54.651 159.080 C 70.923 119.023,69.155 79.185,49.552 44.188 C 48.219 41.808,47.129 39.835,47.129 39.802 C 47.129 39.770,49.063 40.056,51.427 40.438 C 78.821 44.862,109.488 40.825,131.857 29.851 L 138.416 26.633 140.396 27.787 C 141.485 28.421,144.852 30.194,147.877 31.728 M246.134 100.000 C 246.134 134.198,246.180 148.130,246.238 130.959 C 246.295 113.788,246.295 85.808,246.238 68.781 C 246.180 51.753,246.134 65.802,246.134 100.000 M202.131 171.687 C 206.243 172.759,210.119 175.810,211.801 179.302 C 212.547 180.850,212.902 180.521,208.152 182.695 L 204.226 184.493 203.078 182.909 C 199.305 177.700,191.038 180.037,189.050 186.875 C 185.457 199.237,196.583 209.981,203.451 200.782 L 204.840 198.921 208.559 201.086 C 212.801 203.557,212.626 203.256,211.160 205.566 C 204.201 216.531,187.189 215.301,181.549 203.427 C 173.364 186.191,185.566 167.373,202.131 171.687 M163.082 176.139 L 163.194 180.594 152.884 180.594 L 142.574 180.594 142.574 183.762 L 142.574 186.931 148.515 186.931 L 154.455 186.931 154.455 191.287 L 154.455 195.644 148.523 195.644 L 142.590 195.644 142.483 204.059 L 142.376 212.475 138.020 212.475 L 133.663 212.475 133.560 192.475 C 133.504 181.475,133.543 172.250,133.649 171.975 C 133.799 171.583,136.966 171.498,148.405 171.579 L 162.970 171.683 163.082 176.139 M254.115 171.862 C 263.722 172.967,268.467 181.745,263.192 188.655 L 261.889 190.362 263.586 192.014 C 267.827 196.140,267.396 204.409,262.715 208.723 C 259.071 212.082,255.478 212.758,242.178 212.587 L 233.465 212.475 233.362 192.475 C 233.306 181.475,233.345 172.252,233.449 171.980 C 233.682 171.372,249.089 171.284,254.115 171.862 M242.376 183.366 L 242.376 186.535 247.947 186.535 C 254.898 186.535,255.829 186.160,255.829 183.366 C 255.829 180.572,254.898 180.198,247.947 180.198 L 242.376 180.198 242.376 183.366 M242.376 199.406 L 242.376 203.960 247.426 203.958 C 255.061 203.955,257.075 203.038,257.125 199.541 C 257.185 195.310,256.326 194.851,248.336 194.851 L 242.376 194.851 242.376 199.406 M357.753 220.297 C 359.068 228.036,358.909 244.848,357.415 256.040 C 349.312 316.725,304.783 352.535,229.871 358.611 C 221.187 359.315,181.364 359.454,172.673 358.810 C 101.471 353.534,57.113 321.855,44.976 267.613 C 41.667 252.822,40.652 232.663,42.604 220.495 L 42.842 219.010 200.188 219.010 L 357.534 219.010 357.753 220.297 M192.439 246.952 C 187.746 247.802,180.365 250.745,177.812 252.785 C 176.325 253.974,173.470 268.762,173.475 275.248 C 173.489 291.724,184.319 301.583,194.375 294.274 C 198.480 291.290,199.131 288.708,196.468 285.974 C 190.661 280.012,190.371 270.357,195.819 264.408 L 197.216 262.884 195.857 261.297 C 192.659 257.561,192.401 251.523,195.266 247.499 C 195.721 246.860,195.948 246.353,195.770 246.372 C 195.591 246.392,194.093 246.653,192.439 246.952 M198.851 247.489 C 194.378 251.667,195.974 262.374,200.883 261.122 C 211.878 258.319,229.946 267.745,238.967 280.992 L 240.854 283.762 240.577 281.584 C 238.389 264.391,224.492 249.935,207.264 246.931 C 201.969 246.007,200.319 246.117,198.851 247.489 M170.671 258.664 C 159.789 269.808,156.101 287.172,161.565 301.534 L 161.998 302.673 165.318 302.498 C 169.582 302.275,172.960 300.723,175.618 297.767 C 177.749 295.396,177.788 295.149,176.258 293.683 C 170.715 288.372,169.198 274.506,172.624 260.463 C 173.244 257.921,173.678 255.842,173.589 255.842 C 173.500 255.842,172.187 257.112,170.671 258.664 M200.548 264.318 C 193.580 267.562,192.583 278.697,198.740 284.504 L 199.947 285.642 201.261 284.836 C 209.062 280.051,218.245 284.614,220.364 294.329 C 220.579 295.316,220.684 295.364,221.879 295.022 C 227.151 293.510,233.854 296.186,236.705 300.939 L 237.964 303.039 238.981 299.818 C 241.768 290.996,241.042 287.808,234.324 279.362 C 225.297 268.015,208.590 260.573,200.548 264.318 M205.545 285.892 C 203.152 286.678,201.188 287.955,201.188 288.725 C 201.188 295.777,189.947 301.341,182.204 298.122 L 179.655 297.063 179.068 297.937 C 176.264 302.108,170.562 305.078,164.640 305.450 L 163.141 305.545 165.147 308.798 C 166.250 310.588,168.592 313.573,170.352 315.432 L 173.552 318.812 175.994 318.812 C 194.705 318.812,215.344 308.327,217.470 297.741 C 218.848 290.881,211.769 283.847,205.545 285.892 M221.485 297.846 C 220.777 298.063,220.198 298.474,220.198 298.760 C 220.198 301.784,214.812 307.845,208.228 312.230 C 201.197 316.912,195.104 319.150,185.421 320.608 C 183.093 320.958,180.386 321.375,179.406 321.535 L 177.624 321.826 181.791 323.883 C 200.377 333.058,223.792 326.710,234.328 309.641 C 238.444 302.973,230.013 295.230,221.485 297.846 " stroke="none" fill="#e3bb0b" fill-rule="evenodd"></path><path id="path4" d="M277.421 99.406 C 277.421 133.931,277.468 148.054,277.525 130.792 C 277.582 113.530,277.582 85.282,277.525 68.020 C 277.468 50.757,277.421 64.881,277.421 99.406 M292.866 101.782 C 292.866 135.000,292.913 148.589,292.970 131.980 C 293.027 115.371,293.027 88.193,292.970 71.584 C 292.913 54.975,292.866 68.564,292.866 101.782 M324.153 103.366 C 324.153 135.713,324.200 148.946,324.257 132.772 C 324.315 116.599,324.315 90.134,324.257 73.960 C 324.200 57.787,324.153 71.020,324.153 103.366 M66.082 80.102 C 66.248 80.268,76.264 80.357,88.340 80.300 L 110.297 80.198 88.039 80.000 C 75.798 79.891,65.917 79.937,66.082 80.102 M164.455 80.297 C 170.718 80.358,180.965 80.358,187.228 80.297 C 193.490 80.236,188.366 80.185,175.842 80.185 C 163.317 80.185,158.193 80.236,164.455 80.297 " stroke="none" fill="#bb7338" fill-rule="evenodd"></path><path id="path5" d="M261.782 96.040 L 261.782 161.980 269.505 161.980 L 277.228 161.980 277.228 99.437 L 277.228 36.893 275.743 36.426 C 274.926 36.168,271.553 34.640,268.247 33.029 C 264.941 31.417,262.134 30.099,262.009 30.099 C 261.884 30.099,261.782 59.772,261.782 96.040 M241.815 39.681 C 239.655 40.550,236.269 41.758,234.291 42.365 L 230.693 43.469 230.593 102.724 L 230.492 161.980 238.217 161.980 L 245.941 161.980 245.941 100.000 C 245.941 65.911,245.896 38.038,245.842 38.061 C 245.787 38.083,243.975 38.813,241.815 39.681 M293.069 101.853 L 293.069 161.980 300.792 161.980 L 308.515 161.980 308.515 103.019 L 308.515 44.058 304.653 43.577 C 302.530 43.312,299.054 42.787,296.931 42.410 L 293.069 41.725 293.069 101.853 M344.554 44.015 C 343.574 44.208,338.629 44.477,333.564 44.613 L 324.356 44.859 324.356 103.420 L 324.356 161.980 334.022 161.980 L 343.687 161.980 342.325 158.515 C 327.567 120.960,328.338 83.554,344.562 50.000 C 347.925 43.044,347.925 43.350,344.554 44.015 M206.436 47.235 L 201.188 47.614 201.188 104.797 L 201.188 161.980 208.119 161.980 L 215.050 161.980 215.050 104.356 L 215.050 46.733 213.366 46.794 C 212.441 46.828,209.322 47.026,206.436 47.235 " stroke="none" fill="#fcdc04" fill-rule="evenodd"></path><path id="path6" d="M77.133 28.399 C 77.626 28.494,78.339 28.490,78.717 28.391 C 79.096 28.292,78.693 28.214,77.822 28.219 C 76.950 28.223,76.641 28.304,77.133 28.399 M321.886 28.399 C 322.378 28.494,323.091 28.490,323.470 28.391 C 323.849 28.292,323.446 28.214,322.574 28.219 C 321.703 28.223,321.393 28.304,321.886 28.399 M68.200 42.273 C 69.661 42.349,72.156 42.350,73.745 42.275 C 75.334 42.199,74.139 42.137,71.089 42.136 C 68.040 42.136,66.740 42.198,68.200 42.273 M326.418 42.273 C 327.879 42.349,330.374 42.350,331.963 42.275 C 333.552 42.199,332.356 42.137,329.307 42.136 C 326.257 42.136,324.958 42.198,326.418 42.273 M86.832 44.233 C 87.213 44.333,87.837 44.333,88.218 44.233 C 88.599 44.134,88.287 44.052,87.525 44.052 C 86.762 44.052,86.450 44.134,86.832 44.233 M63.267 44.636 C 63.757 44.730,64.559 44.730,65.050 44.636 C 65.540 44.542,65.139 44.464,64.158 44.464 C 63.178 44.464,62.777 44.542,63.267 44.636 M77.516 44.642 C 78.219 44.730,79.467 44.731,80.288 44.645 C 81.110 44.560,80.535 44.488,79.010 44.486 C 77.485 44.485,76.813 44.555,77.516 44.642 M190.594 47.006 C 190.975 47.105,191.599 47.105,191.980 47.006 C 192.361 46.906,192.050 46.825,191.287 46.825 C 190.525 46.825,190.213 46.906,190.594 47.006 M334.406 105.149 C 334.406 107.545,334.472 108.474,334.551 107.213 C 334.629 105.953,334.629 103.992,334.549 102.857 C 334.469 101.721,334.405 102.752,334.406 105.149 M348.237 102.970 C 348.237 104.168,348.312 104.658,348.402 104.059 C 348.493 103.460,348.493 102.480,348.402 101.881 C 348.312 101.282,348.237 101.772,348.237 102.970 M52.014 105.347 C 52.014 106.980,52.084 107.649,52.170 106.832 C 52.255 106.015,52.255 104.678,52.170 103.861 C 52.084 103.045,52.014 103.713,52.014 105.347 M65.865 105.149 C 65.868 106.455,65.941 106.942,66.030 106.231 C 66.118 105.519,66.116 104.449,66.026 103.854 C 65.935 103.259,65.863 103.842,65.865 105.149 M348.237 107.723 C 348.237 108.921,348.312 109.411,348.402 108.812 C 348.493 108.213,348.493 107.233,348.402 106.634 C 348.312 106.035,348.237 106.525,348.237 107.723 M56.238 162.079 C 56.238 162.243,88.272 162.333,127.426 162.280 C 166.579 162.227,187.119 162.138,173.069 162.082 C 105.186 161.812,56.238 161.811,56.238 162.079 M236.305 162.277 C 255.946 162.334,288.204 162.334,307.988 162.277 C 327.773 162.220,311.703 162.174,272.277 162.174 C 232.851 162.174,216.664 162.220,236.305 162.277 M196.540 171.373 C 197.142 171.464,198.033 171.462,198.520 171.368 C 199.007 171.274,198.515 171.199,197.426 171.202 C 196.337 171.205,195.938 171.282,196.540 171.373 M133.649 192.079 C 133.649 203.297,133.700 207.886,133.762 202.277 C 133.824 196.668,133.824 187.490,133.762 181.881 C 133.700 176.272,133.649 180.861,133.649 192.079 M233.451 192.079 C 233.451 203.297,233.502 207.886,233.564 202.277 C 233.626 196.668,233.626 187.490,233.564 181.881 C 233.502 176.272,233.451 180.861,233.451 192.079 M142.345 180.730 C 142.233 181.023,142.194 182.582,142.259 184.195 L 142.376 187.129 148.416 187.145 L 154.456 187.161 148.515 187.035 L 142.574 186.910 142.574 183.759 L 142.574 180.607 152.772 180.495 L 162.970 180.382 152.760 180.290 C 144.513 180.216,142.510 180.300,142.345 180.730 M244.851 186.828 C 246.322 186.905,248.728 186.905,250.198 186.828 C 251.668 186.752,250.465 186.690,247.525 186.690 C 244.584 186.690,243.381 186.752,244.851 186.828 M142.346 203.960 C 142.346 208.644,142.404 210.559,142.474 208.218 C 142.544 205.876,142.544 202.045,142.474 199.703 C 142.404 197.361,142.346 199.277,142.346 203.960 M18.812 207.921 C 19.885 209.010,20.851 209.901,20.960 209.901 C 21.069 209.901,20.281 209.010,19.208 207.921 C 18.135 206.832,17.168 205.941,17.059 205.941 C 16.951 205.941,17.739 206.832,18.812 207.921 M379.585 209.604 L 378.020 211.287 379.703 209.722 C 381.268 208.266,381.568 207.921,381.268 207.921 C 381.204 207.921,380.446 208.678,379.585 209.604 M196.144 212.957 C 196.746 213.048,197.637 213.046,198.124 212.952 C 198.611 212.858,198.119 212.784,197.030 212.787 C 195.941 212.790,195.542 212.866,196.144 212.957 M121.715 219.307 C 165.025 219.362,235.778 219.362,278.943 219.307 C 322.109 219.251,286.673 219.206,200.198 219.206 C 113.723 219.206,78.406 219.251,121.715 219.307 M87.321 275.248 C 87.321 304.762,87.368 316.837,87.426 302.079 C 87.483 287.322,87.483 263.173,87.426 248.416 C 87.368 233.658,87.321 245.733,87.321 275.248 M132.867 285.743 C 132.867 321.030,132.913 335.407,132.970 317.692 C 133.027 299.976,133.027 271.105,132.970 253.533 C 132.913 235.961,132.867 250.455,132.867 285.743 M269.007 285.224 C 268.954 320.226,269.045 348.947,269.208 349.048 C 269.476 349.214,269.475 305.503,269.204 244.554 C 269.148 231.921,269.059 250.222,269.007 285.224 M314.648 274.653 C 314.648 303.842,314.695 315.724,314.752 301.058 C 314.810 286.393,314.810 262.512,314.752 247.989 C 314.695 233.466,314.648 245.465,314.648 274.653 M170.829 274.653 C 170.830 276.396,170.900 277.060,170.984 276.128 C 171.067 275.197,171.066 273.771,170.981 272.960 C 170.896 272.149,170.827 272.911,170.829 274.653 M230.099 274.579 C 230.099 274.648,230.678 275.227,231.386 275.866 L 232.673 277.030 231.510 275.743 C 230.426 274.543,230.099 274.273,230.099 274.579 M243.268 282.574 C 243.273 283.446,243.354 283.755,243.448 283.263 C 243.543 282.770,243.540 282.057,243.440 281.679 C 243.341 281.300,243.264 281.703,243.268 282.574 M243.691 287.525 C 243.691 288.941,243.763 289.520,243.851 288.812 C 243.939 288.104,243.939 286.946,243.851 286.238 C 243.763 285.530,243.691 286.109,243.691 287.525 M213.048 305.248 L 211.683 306.733 213.168 305.368 C 213.985 304.617,214.653 303.949,214.653 303.883 C 214.653 303.580,214.318 303.865,213.048 305.248 M70.099 316.956 C 70.099 317.024,70.678 317.603,71.386 318.243 L 72.673 319.406 71.510 318.119 C 70.426 316.919,70.099 316.650,70.099 316.956 M326.916 320.099 L 324.950 322.178 327.030 320.213 C 328.962 318.387,329.291 318.020,328.995 318.020 C 328.932 318.020,327.997 318.955,326.916 320.099 M60.594 326.857 C 60.594 326.925,61.173 327.504,61.881 328.144 L 63.168 329.307 62.005 328.020 C 60.921 326.820,60.594 326.551,60.594 326.857 M198.911 328.590 C 199.292 328.689,199.916 328.689,200.297 328.590 C 200.678 328.490,200.366 328.409,199.604 328.409 C 198.842 328.409,198.530 328.490,198.911 328.590 M335.828 330.594 L 333.663 332.871 335.941 330.707 C 338.056 328.696,338.399 328.317,338.105 328.317 C 338.043 328.317,337.019 329.342,335.828 330.594 M193.442 330.656 C 193.564 330.853,194.020 330.922,194.456 330.808 C 195.546 330.523,195.448 330.297,194.234 330.297 C 193.677 330.297,193.320 330.459,193.442 330.656 M197.030 331.053 C 197.963 331.417,203.843 331.338,204.226 330.956 C 204.370 330.811,202.632 330.704,200.363 330.718 C 197.945 330.733,196.565 330.871,197.030 331.053 M180.708 359.105 C 181.968 359.184,183.928 359.183,185.064 359.103 C 186.200 359.024,185.168 358.959,182.772 358.960 C 180.376 358.961,179.447 359.026,180.708 359.105 M218.317 359.096 C 218.916 359.186,219.896 359.186,220.495 359.096 C 221.094 359.005,220.604 358.931,219.406 358.931 C 218.208 358.931,217.718 359.005,218.317 359.096 " stroke="none" fill="#6c6c6c" fill-rule="evenodd"></path><path id="path7" d="M196.139 44.629 C 196.520 44.729,197.144 44.729,197.525 44.629 C 197.906 44.530,197.594 44.448,196.832 44.448 C 196.069 44.448,195.757 44.530,196.139 44.629 M202.871 44.629 C 203.252 44.729,203.876 44.729,204.257 44.629 C 204.639 44.530,204.327 44.448,203.564 44.448 C 202.802 44.448,202.490 44.530,202.871 44.629 M200.985 104.752 C 200.985 136.337,201.032 149.199,201.089 133.335 C 201.146 117.472,201.146 91.630,201.089 75.910 C 201.032 60.189,200.985 73.168,200.985 104.752 M148.205 171.780 L 162.746 171.891 162.879 176.243 L 163.011 180.596 162.991 176.139 L 162.970 171.683 148.317 171.676 L 133.663 171.668 148.205 171.780 M238.340 171.781 C 241.020 171.850,245.298 171.850,247.844 171.781 C 250.391 171.712,248.198 171.656,242.970 171.656 C 237.743 171.656,235.659 171.713,238.340 171.781 M242.119 183.366 C 242.119 185.218,242.187 185.975,242.270 185.050 C 242.354 184.124,242.354 182.609,242.270 181.683 C 242.187 180.757,242.119 181.515,242.119 183.366 M188.211 192.079 C 188.211 192.842,188.292 193.153,188.392 192.772 C 188.491 192.391,188.491 191.767,188.392 191.386 C 188.292 191.005,188.211 191.317,188.211 192.079 M242.152 194.976 C 242.042 195.262,242.010 197.445,242.080 199.827 L 242.208 204.158 242.292 199.516 L 242.376 194.874 247.624 194.751 L 252.871 194.628 247.611 194.542 C 243.569 194.475,242.305 194.576,242.152 194.976 M386.139 202.574 C 385.177 203.554,384.479 204.356,384.588 204.356 C 384.696 204.356,385.573 203.554,386.535 202.574 C 387.497 201.594,388.195 200.792,388.086 200.792 C 387.977 200.792,387.101 201.594,386.139 202.574 M135.955 212.570 C 137.215 212.649,139.176 212.648,140.311 212.569 C 141.447 212.489,140.416 212.424,138.020 212.425 C 135.624 212.426,134.695 212.491,135.955 212.570 M238.317 212.573 C 240.985 212.642,245.351 212.642,248.020 212.573 C 250.688 212.505,248.505 212.448,243.168 212.448 C 237.832 212.448,235.649 212.505,238.317 212.573 M28.211 230.099 C 28.211 230.861,28.292 231.173,28.392 230.792 C 28.491 230.411,28.491 229.787,28.392 229.406 C 28.292 229.025,28.211 229.337,28.211 230.099 M358.516 231.089 C 358.520 231.960,358.601 232.270,358.696 231.778 C 358.791 231.285,358.787 230.572,358.688 230.193 C 358.589 229.815,358.511 230.218,358.516 231.089 M372.034 235.248 C 372.034 237.970,372.097 239.084,372.174 237.723 C 372.252 236.361,372.252 234.134,372.174 232.772 C 372.097 231.411,372.034 232.525,372.034 235.248 M358.508 240.000 C 358.508 240.762,358.589 241.074,358.689 240.693 C 358.788 240.312,358.788 239.688,358.689 239.307 C 358.589 238.926,358.508 239.238,358.508 240.000 M28.211 240.792 C 28.211 241.554,28.292 241.866,28.392 241.485 C 28.491 241.104,28.491 240.480,28.392 240.099 C 28.292 239.718,28.211 240.030,28.211 240.792 M158.904 285.941 C 158.904 286.703,158.985 287.015,159.085 286.634 C 159.184 286.252,159.184 285.629,159.085 285.248 C 158.985 284.866,158.904 285.178,158.904 285.941 " stroke="none" fill="#ad8c14" fill-rule="evenodd"></path><path id="path8" d="M79.906 28.399 C 80.398 28.494,81.111 28.490,81.490 28.391 C 81.868 28.292,81.465 28.214,80.594 28.219 C 79.723 28.223,79.413 28.304,79.906 28.399 M319.114 28.399 C 319.606 28.494,320.319 28.490,320.698 28.391 C 321.076 28.292,320.673 28.214,319.802 28.219 C 318.931 28.223,318.621 28.304,319.114 28.399 M198.723 31.182 C 199.655 31.265,201.081 31.264,201.892 31.179 C 202.703 31.094,201.941 31.025,200.198 31.027 C 198.455 31.028,197.792 31.098,198.723 31.182 M51.973 101.386 C 51.973 102.149,52.055 102.460,52.154 102.079 C 52.254 101.698,52.254 101.074,52.154 100.693 C 52.055 100.312,51.973 100.624,51.973 101.386 M51.973 109.307 C 51.973 110.069,52.055 110.381,52.154 110.000 C 52.254 109.619,52.254 108.995,52.154 108.614 C 52.055 108.233,51.973 108.545,51.973 109.307 M196.535 180.075 C 196.916 180.175,197.540 180.175,197.921 180.075 C 198.302 179.975,197.990 179.894,197.228 179.894 C 196.465 179.894,196.153 179.975,196.535 180.075 M244.455 180.096 C 245.926 180.172,248.332 180.172,249.802 180.096 C 251.272 180.019,250.069 179.957,247.129 179.957 C 244.188 179.957,242.985 180.019,244.455 180.096 M179.133 192.277 C 179.135 193.584,179.209 194.071,179.297 193.359 C 179.385 192.647,179.383 191.578,179.293 190.983 C 179.203 190.388,179.130 190.970,179.133 192.277 M196.535 204.233 C 196.916 204.333,197.540 204.333,197.921 204.233 C 198.302 204.134,197.990 204.052,197.228 204.052 C 196.465 204.052,196.153 204.134,196.535 204.233 M28.211 227.723 C 28.211 228.485,28.292 228.797,28.392 228.416 C 28.491 228.035,28.491 227.411,28.392 227.030 C 28.292 226.649,28.211 226.960,28.211 227.723 M371.981 229.109 C 371.985 229.980,372.067 230.290,372.161 229.797 C 372.256 229.305,372.252 228.592,372.153 228.213 C 372.054 227.835,371.977 228.238,371.981 229.109 M41.740 235.446 C 41.741 238.495,41.803 239.690,41.879 238.101 C 41.954 236.513,41.953 234.018,41.877 232.557 C 41.801 231.096,41.740 232.396,41.740 235.446 M358.554 235.644 C 358.554 237.495,358.622 238.252,358.706 237.327 C 358.789 236.401,358.789 234.886,358.706 233.960 C 358.622 233.035,358.554 233.792,358.554 235.644 M371.989 241.584 C 371.989 242.564,372.066 242.965,372.161 242.475 C 372.255 241.985,372.255 241.183,372.161 240.693 C 372.066 240.203,371.989 240.604,371.989 241.584 M195.743 254.059 C 195.748 254.931,195.829 255.240,195.924 254.748 C 196.018 254.255,196.015 253.542,195.916 253.164 C 195.817 252.785,195.739 253.188,195.743 254.059 M204.857 263.254 C 205.459 263.346,206.350 263.343,206.837 263.249 C 207.324 263.155,206.832 263.081,205.743 263.084 C 204.653 263.087,204.255 263.163,204.857 263.254 M173.161 273.267 C 173.161 274.030,173.243 274.342,173.342 273.960 C 173.442 273.579,173.442 272.955,173.342 272.574 C 173.243 272.193,173.161 272.505,173.161 273.267 M207.228 283.045 C 207.609 283.145,208.233 283.145,208.614 283.045 C 208.995 282.946,208.683 282.864,207.921 282.864 C 207.158 282.864,206.847 282.946,207.228 283.045 M187.426 296.907 C 187.807 297.006,188.431 297.006,188.812 296.907 C 189.193 296.807,188.881 296.726,188.119 296.726 C 187.356 296.726,187.045 296.807,187.426 296.907 M163.273 302.858 C 163.875 302.949,164.766 302.947,165.253 302.853 C 165.740 302.759,165.248 302.685,164.158 302.688 C 163.069 302.691,162.671 302.767,163.273 302.858 M238.892 306.741 C 238.418 307.717,238.113 308.515,238.215 308.515 C 238.483 308.515,240.083 305.298,239.904 305.119 C 239.821 305.036,239.366 305.766,238.892 306.741 M228.890 319.901 L 227.525 321.386 229.010 320.021 C 230.392 318.751,230.677 318.416,230.375 318.416 C 230.309 318.416,229.640 319.084,228.890 319.901 M174.356 319.085 C 174.738 319.184,175.361 319.184,175.743 319.085 C 176.124 318.985,175.812 318.904,175.050 318.904 C 174.287 318.904,173.975 318.985,174.356 319.085 M225.743 322.425 C 224.362 323.635,224.362 323.636,225.632 322.792 C 226.333 322.325,227.012 321.773,227.140 321.566 C 227.522 320.948,227.205 321.142,225.743 322.425 M64.158 330.495 C 64.897 331.257,65.591 331.881,65.700 331.881 C 65.809 331.881,65.293 331.257,64.554 330.495 C 63.816 329.733,63.122 329.109,63.013 329.109 C 62.904 329.109,63.419 329.733,64.158 330.495 " stroke="none" fill="#a28e0c" fill-rule="evenodd"></path></g></svg>